{
  "accessors": [
    {
      "bufferView": 2,
      "componentType": 5126,
      "count": 5446,
      "max": [
        1368.135986328125,
        301.622802734375,
        453.2591857910156
      ],
      "min": [
        -1145.1700439453125,
        -301.6234130859375,
        -452.505615234375
      ],
      "type": "VEC3"
    },
    {
      "bufferView": 2,
      "byteOffset": 65352,
      "componentType": 5126,
      "count": 5446,
      "max": [
        1.0,
        1.0,
        1.0
      ],
      "min": [
        -1.0,
        -1.0,
        -1.0
      ],
      "type": "VEC3"
    },
    {
      "bufferView": 3,
      "componentType": 5126,
      "count": 5446,
      "max": [
        1.0,
        1.0,
        1.0,
        1.0
      ],
      "min": [
        -1.0,
        -1.0,
        -1.0,
        -1.0
      ],
      "type": "VEC4"
    },
    {
      "bufferView": 1,
      "componentType": 5126,
      "count": 5446,
      "max": [
        0.9901970028877258,
        0.9899960160255432
      ],
      "min": [
        0.009802999906241894,
        0.009802999906241894
      ],
      "type": "VEC2"
    },
    {
      "bufferView": 0,
      "componentType": 5125,
      "count": 14880,
      "type": "SCALAR"
    },
    {
      "bufferView": 2,
      "byteOffset": 130704,
      "componentType": 5126,
      "count": 3144,
      "max": [
        176.72610473632813,
        283.87860107421875,
        95.1095962524414
      ],
      "min": [
        -169.54629516601563,
        -283.87921142578125,
        -470.8424072265625
      ],
      "type": "VEC3"
    },
    {
      "bufferView": 2,
      "byteOffset": 168432,
      "componentType": 5126,
      "count": 3144,
      "max": [
        1.0,
        1.0,
        1.0
      ],
      "min": [
        -1.0,
        -1.0,
        -1.0
      ],
      "type": "VEC3"
    },
    {
      "bufferView": 3,
      "byteOffset": 87136,
      "componentType": 5126,
      "count": 3144,
      "max": [
        1.0,
        1.0,
        1.0,
        1.0
      ],
      "min": [
        -1.0,
        -1.0,
        -1.0,
        -1.0
      ],
      "type": "VEC4"
    },
    {
      "bufferView": 1,
      "byteOffset": 43568,
      "componentType": 5126,
      "count": 3144,
      "max": [
        0.9901949763298035,
        0.932174026966095
      ],
      "min": [
        0.3882009983062744,
        0.16843900084495544
      ],
      "type": "VEC2"
    },
    {
      "bufferView": 0,
      "byteOffset": 59520,
      "componentType": 5125,
      "count": 7368,
      "type": "SCALAR"
    },
    {
      "bufferView": 2,
      "byteOffset": 206160,
      "componentType": 5126,
      "count": 164,
      "max": [
        176.72610473632813,
        -760.2589111328125,
        -335.1773986816406
      ],
      "min": [
        -169.54629516601563,
        -835.6256103515625,
        -410.5442810058594
      ],
      "type": "VEC3"
    },
    {
      "bufferView": 2,
      "byteOffset": 208128,
      "componentType": 5126,
      "count": 164,
      "max": [
        1.0,
        0.9537175297737122,
        0.9961947202682495
      ],
      "min": [
        -1.0,
        -0.9961947798728943,
        -0.9961947798728943
      ],
      "type": "VEC3"
    },
    {
      "bufferView": 3,
      "byteOffset": 137440,
      "componentType": 5126,
      "count": 164,
      "max": [
        0.23653602600097656,
        0.9592811465263367,
        0.9398041367530823,
        1.0
      ],
      "min": [
        -0.23666206002235413,
        -0.9961947798728943,
        -0.9961947202682495,
        1.0
      ],
      "type": "VEC4"
    },
    {
      "bufferView": 1,
      "byteOffset": 68720,
      "componentType": 5126,
      "count": 164,
      "max": [
        0.990015983581543,
        0.932174026966095
      ],
      "min": [
        0.3882009983062744,
        0.16843900084495544
      ],
      "type": "VEC2"
    },
    {
      "bufferView": 0,
      "byteOffset": 88992,
      "componentType": 5125,
      "count": 378,
      "type": "SCALAR"
    }
  ],
  "asset": {
    "extras": {
      "author": "gustavsx12 (https://sketchfab.com/gustavsx12)",
      "license": "CC-BY-4.0 (http://creativecommons.org/licenses/by/4.0/)",
      "source": "https://sketchfab.com/3d-models/toy-mashine-gun-low-poly-88372cfa0f674df797c33dd8975e99cb",
      "title": "Toy Mashine Gun Low Poly"
    },
    "generator": "Sketchfab-12.67.0",
    "version": "2.0"
  },
  "bufferViews": [
    {
      "buffer": 0,
      "byteLength": 90504,
      "name": "floatBufferViews",
      "target": 34963
    },
    {
      "buffer": 0,
      "byteLength": 70032,
      "byteOffset": 90504,
      "byteStride": 8,
      "name": "floatBufferViews",
      "target": 34962
    },
    {
      "buffer": 0,
      "byteLength": 210096,
      "byteOffset": 160536,
      "byteStride": 12,
      "name": "floatBufferViews",
      "target": 34962
    },
    {
      "buffer": 0,
      "byteLength": 140064,
      "byteOffset": 370632,
      "byteStride": 16,
      "name": "floatBufferViews",
      "target": 34962
    }
  ],
  "buffers": [
    {
      "byteLength": 510696,
      "uri": "scene.bin"
    }
  ],
  "images": [
    {
      "uri": "textures/Toy_mashine_gun_baseColor.png"
    },
    {
      "uri": "textures/Toy_mashine_gun_metallicRoughness.png"
    },
    {
      "uri": "textures/Toy_mashine_gun_normal.png"
    }
  ],
  "materials": [
    {
      "doubleSided": true,
      "name": "Toy_mashine_gun",
      "normalTexture": {
        "index": 2
      },
      "occlusionTexture": {
        "index": 1
      },
      "pbrMetallicRoughness": {
        "baseColorTexture": {
          "index": 0
        },
        "metallicRoughnessTexture": {
          "index": 1
        }
      }
    }
  ],
  "meshes": [
    {
      "name": "Toy mashine gun_Toy mashine gun_0",
      "primitives": [
        {
          "attributes": {
            "NORMAL": 1,
            "POSITION": 0,
            "TANGENT": 2,
            "TEXCOORD_0": 3
          },
          "indices": 4,
          "material": 0,
          "mode": 4
        }
      ]
    },
    {
      "name": "collar_Toy mashine gun_0",
      "primitives": [
        {
          "attributes": {
            "NORMAL": 6,
            "POSITION": 5,
            "TANGENT": 7,
            "TEXCOORD_0": 8
          },
          "indices": 9,
          "material": 0,
          "mode": 4
        }
      ]
    },
    {
      "name": "bullet_Toy mashine gun_0",
      "primitives": [
        {
          "attributes": {
            "NORMAL": 11,
            "POSITION": 10,
            "TANGENT": 12,
            "TEXCOORD_0": 13
          },
          "indices": 14,
          "material": 0,
          "mode": 4
        }
      ]
    }
  ],
  "nodes": [
    {
      "children": [
        1
      ],
      "matrix": [
        0.0001546211715321988,
        0.0,
        0.0,
        0.0,
        0.0,
        3.433279694591258e-20,
        -0.0001546211715321988,
        0.0,
        0.0,
        0.0001546211715321988,
        3.433279694591258e-20,
        0.0,
        0.0,
        0.0,
        0.0,
        1.0
      ],
      "name": "Sketchfab_model"
    },
    {
      "children": [
        2
      ],
      "matrix": [
        1.0,
        0.0,
        0.0,
        0.0,
        0.0,
        0.0,
        1.0,
        0.0,
        0.0,
        -1.0,
        0.0,
        0.0,
        0.0,
        0.0,
        0.0,
        1.0
      ],
      "name": "7a1373185c304b4a8622a38c2c5c8c42.fbx"
    },
    {
      "children": [
        3,
        5,
        8
      ],
      "name": "RootNode"
    },
    {
      "children": [
        4
      ],
      "matrix": [
        2.5399999618530273,
        0.0,
        0.0,
        0.0,
        0.0,
        5.6399328803925005e-16,
        -2.5399999618530273,
        0.0,
        0.0,
        2.5399999618530273,
        5.6399328803925005e-16,
        0.0,
        0.0,
        0.0,
        0.0,
        1.0
      ],
      "name": "Toy mashine gun"
    },
    {
      "mesh": 0,
      "name": "Toy mashine gun_Toy mashine gun_0"
    },
    {
      "children": [
        6
      ],
      "matrix": [
        2.5399999618530273,
        0.0,
        0.0,
        0.0,
        0.0,
        5.6399328803925005e-16,
        -2.5399999618530273,
        0.0,
        0.0,
        2.5399999618530273,
        5.6399328803925005e-16,
        0.0,
        9.118358612060547,
        -477.1806945800781,
        0.0007751464727334678,
        1.0
      ],
      "name": "collar"
    },
    {
      "children": [
        7
      ],
      "matrix": [
        1.0,
        0.0,
        -0.0,
        0.0,
        0.0,
        1.0,
        0.0,
        0.0,
        0.0,
        0.0,
        1.0,
        0.0,
        -3.58990478515625,
        0.00030517578125,
        187.8664093017578,
        1.0
      ],
      "name": "Object_6"
    },
    {
      "mesh": 1,
      "name": "collar_Toy mashine gun_0"
    },
    {
      "children": [
        9
      ],
      "matrix": [
        2.5399999618530273,
        0.0,
        0.0,
        0.0,
        0.0,
        5.6399328803925005e-16,
        -2.5399999618530273,
        0.0,
        0.0,
        2.5399999618530273,
        5.6399328803925005e-16,
        0.0,
        0.0,
        0.0,
        0.0,
        1.0
      ],
      "name": "bullet"
    },
    {
      "children": [
        10
      ],
      "matrix": [
        1.0,
        0.0,
        -0.0,
        0.0,
        0.0,
        1.0,
        0.0,
        0.0,
        0.0,
        0.0,
        1.0,
        0.0,
        -3.58990478515625,
        797.9422607421875,
        372.86083984375,
        1.0
      ],
      "name": "Object_9"
    },
    {
      "mesh": 2,
      "name": "bullet_Toy mashine gun_0"
    }
  ],
  "samplers": [
    {
      "magFilter": 9729,
      "minFilter": 9987,
      "wrapS": 10497,
      "wrapT": 10497
    }
  ],
  "scene": 0,
  "scenes": [
    {
      "name": "Sketchfab_Scene",
      "nodes": [
        0
      ]
    }
  ],
  "textures": [
    {
      "sampler": 0,
      "source": 0
    },
    {
      "sampler": 0,
      "source": 1
    },
    {
      "sampler": 0,
      "source": 2
    }
  ]
}
